<?xml version="1.0" encoding="UTF-8" standalone="no"?>
<svg
   id="final"
   viewBox="0 0 1077.99 890.69"
   version="1.1"
   sodipodi:docname="logo_FIUCV_remasterizado.svg"
   width="1077.99"
   height="890.69"
   inkscape:version="1.4.3 (fcd0343856, 2026-01-01)"
   xmlns:inkscape="http://www.inkscape.org/namespaces/inkscape"
   xmlns:sodipodi="http://sodipodi.sourceforge.net/DTD/sodipodi-0.dtd"
   xmlns="http://www.w3.org/2000/svg"
   xmlns:svg="http://www.w3.org/2000/svg"
   xmlns:rdf="http://www.w3.org/1999/02/22-rdf-syntax-ns#"
   xmlns:cc="http://creativecommons.org/ns#"
   xmlns:dc="http://purl.org/dc/elements/1.1/">
  <sodipodi:namedview
     id="namedview13"
     pagecolor="#ffffff"
     bordercolor="#666666"
     borderopacity="1.0"
     inkscape:showpageshadow="2"
     inkscape:pageopacity="0.0"
     inkscape:pagecheckerboard="0"
     inkscape:deskcolor="#d1d1d1"
     inkscape:zoom="0.38979828"
     inkscape:cx="661.88081"
     inkscape:cy="452.79831"
     inkscape:window-width="1300"
     inkscape:window-height="699"
     inkscape:window-x="0"
     inkscape:window-y="0"
     inkscape:window-maximized="1"
     inkscape:current-layer="final" />
  <defs
     id="defs1">
    <style
       id="style1">.cls-1{fill:#fff;}</style>
  </defs>
  <title
     id="title1">logo_FIUCV_remasterizado</title>
  <g
     id="blanco"
     style="fill:#ffffff">
    <g
       id="FF"
       style="fill:#ffffff">
      <rect
         class="cls-1"
         x="611.78003"
         y="298.17999"
         width="132.87"
         height="207.7"
         transform="rotate(45,791.89061,353.51183)"
         id="rect1"
         style="fill:#ffffff" />
      <rect
         class="cls-1"
         x="688.46997"
         y="271.06"
         width="191.61"
         height="132.87"
         transform="rotate(45,897.95793,288.98635)"
         id="rect2"
         style="fill:#ffffff" />
      <rect
         class="cls-1"
         x="802.10999"
         y="374.89999"
         width="172.03"
         height="132.87"
         transform="rotate(45,1001.7956,392.82732)"
         id="rect3"
         style="fill:#ffffff" />
      <rect
         class="cls-1"
         x="902.03998"
         y="464.95999"
         width="132.87"
         height="179.72"
         transform="rotate(45,1082.1542,506.32294)"
         id="rect4"
         style="fill:#ffffff" />
      <polyline
         class="cls-1"
         points="815.91 659.27 745.2 588.55 872.28 461.47 966.24 555.42 863.38 658.28"
         id="polyline4"
         style="fill:#ffffff" />
      <polyline
         class="cls-1"
         points="674.49 659.27 760.53 573.23 846.57 659.27"
         id="polyline5"
         style="fill:#ffffff" />
      <rect
         class="cls-1"
         x="577.5"
         y="160.78999"
         width="193.00999"
         height="132.87"
         transform="rotate(45,787.68229,178.71869)"
         id="rect5"
         style="fill:#ffffff" />
      <rect
         class="cls-1"
         x="323.81"
         y="792.75"
         width="176.23"
         height="132.87"
         transform="rotate(45,525.60787,810.67391)"
         id="rect6"
         style="fill:#ffffff" />
      <polyline
         class="cls-1"
         points="443.06 890.69 401.53 849.15 495.48 755.2 630.97 890.69"
         id="polyline6"
         style="fill:#ffffff" />
      <polyline
         class="cls-1"
         points="634.32 0 675.48 41.15 581.52 135.1 447.02 0.6"
         id="polyline7"
         style="fill:#ffffff" />
      <rect
         class="cls-1"
         x="341.29001"
         y="577.06"
         width="132.87"
         height="190.91"
         transform="rotate(45,521.40029,624.00107)"
         id="rect7"
         style="fill:#ffffff" />
      <rect
         class="cls-1"
         x="214.24001"
         y="682.47998"
         width="174.83"
         height="132.87"
         transform="rotate(45,415.33223,700.40624)"
         id="rect8"
         style="fill:#ffffff" />
      <rect
         class="cls-1"
         x="110.64"
         y="574.67999"
         width="166.44"
         height="132.87"
         transform="rotate(45,307.53492,592.60513)"
         id="rect9"
         style="fill:#ffffff" />
      <rect
         class="cls-1"
         x="44.59"
         y="436.98001"
         width="132.87"
         height="178.33"
         transform="rotate(45,224.71503,477.64001)"
         id="rect10"
         style="fill:#ffffff" />
      <polyline
         class="cls-1"
         points="246.26 232.03 324.88 310.65 205.71 429.82 111.75 335.87 215.6 232.03"
         id="polyline10"
         style="fill:#ffffff" />
      <polyline
         class="cls-1"
         points="403.5 232.03 317.46 318.07 231.42 232.03"
         id="polyline11"
         style="fill:#ffffff" />
    </g>
    <g
       id="II"
       style="fill:#ffffff">
      <polyline
         class="cls-1"
         points="625.04 232.03 428.23 428.83 334.28 334.88 437.13 232.03"
         id="polyline12"
         style="fill:#ffffff" />
      <rect
         class="cls-1"
         x="696.09003"
         y="472.81"
         width="132.87"
         height="132.87"
         transform="rotate(45,876.19762,490.74294)"
         id="rect12"
         style="fill:#ffffff" />
      <polyline
         class="cls-1"
         points="452.95 659.27 649.76 462.46 743.72 556.41 640.86 659.27"
         id="polyline13"
         style="fill:#ffffff" />
      <rect
         class="cls-1"
         x="251.03999"
         y="474.79001"
         width="132.87"
         height="132.87"
         transform="rotate(45,431.15806,492.72152)"
         id="rect13"
         style="fill:#ffffff" />
    </g>
  </g>
  <metadata
     id="metadata13">
    <rdf:RDF>
      <cc:Work
         rdf:about="">
        <dc:title>logo_FIUCV_remasterizado</dc:title>
      </cc:Work>
    </rdf:RDF>
  </metadata>
</svg>
