<?xml version="1.0" encoding="UTF-8"?>
<svg id="Capa_1" data-name="Capa 1" xmlns="http://www.w3.org/2000/svg" xmlns:xlink="http://www.w3.org/1999/xlink" viewBox="0 0 881.982783387331438 788.646264421530759">
  <defs>
    <style>
      .cls-1 {
        fill: url(#Degradado_sin_nombre_23);
      }

      .cls-1, .cls-2 {
        stroke: #1d1d1b;
        stroke-miterlimit: 10;
        stroke-width: .25px;
      }

      .cls-2 {
        fill: #83c7ff;
      }
    </style>
    <radialGradient id="Degradado_sin_nombre_23" data-name="Degradado sin nombre 23" cx="445.485691600163591" cy="392.408626885152444" fx="413.627972860940702" fy="245.135683515962228" r="342.388898231458029" gradientUnits="userSpaceOnUse">
      <stop offset="0" stop-color="#fff"/>
      <stop offset=".128887263554273" stop-color="#f9fcff"/>
      <stop offset=".290740441321032" stop-color="#eaf5ff"/>
      <stop offset=".470250786412776" stop-color="#d0e9ff"/>
      <stop offset=".661040520681501" stop-color="#acd9ff"/>
      <stop offset=".847686597088862" stop-color="#83c7ff"/>
    </radialGradient>
  </defs>
  <path id="E" class="cls-2" d="M503.755561984120504,620.436995679478969l86.20689655172464,150.57471264367814s-290.80459770114976,89.65517241379348-494.2528735632186-136.78160919540278c0,0-174.71264367816093-180.459770114941421-51.72413793103442-412.64367816091908l93.10344827586232,35.63218390804559s-36.781609195403689,110.344827586209249,18.39080459770048,198.850574712644629l103.44827586206975-106.89655172413859,118.39080459770048,111.49425287356371-109.19540229885024,114.94252873563164s52.873563218389791,54.02298850574698,235.63218390804559,44.82758620689674Z"/>
  <path id="I" class="cls-1" d="M98.008435547339104,148.023202576030599s265.270481780384216,53.503546099290361,564.3678160919535,581.60919540229861c0,0,95.352653460504371-32.575201760819255,130.586696013695473-87.724137931032601,0,0-294.127659574469362-571.404255319150252-582.127659574469362-586.72340425532002l-112.826852531179611,92.838346784054011Z"/>
  <path id="E-2" data-name="E" class="cls-2" d="M845.048054035965833,563.780600472827246s110.808510638300504-251.234042553192012-52.085106382977756-422.808510638298685c0,0-149.617021276595551-192.000000000000909-475.404255319148433-127.659574468085339l63.319148936170677,41.872340425533366s171.574468085107583-19.404255319150252,233.872340425532457,38.808510638296866l-85.787234042554701,50.042553191489787,100.085106382979575,114.382978723403539,103.148936170213346-46.978723404255106s60.816238265293578,96.884966211498067,22.468085106382205,197.468085106383114l90.38297872340263,154.872340425532457Z"/>
</svg>