<svg id="svg221" xmlns="http://www.w3.org/2000/svg" viewBox="0 0 159.16 159.16"><defs><style>.cls-1{fill:#fff;}.cls-2,.cls-3,.cls-4,.cls-5,.cls-6,.cls-7{fill:none;}.cls-2,.cls-3,.cls-4,.cls-6,.cls-7{stroke:#fff;}.cls-2,.cls-3,.cls-4,.cls-7{stroke-linecap:round;stroke-linejoin:round;}.cls-2{stroke-width:1px;}.cls-3{stroke-width:0.5px;}.cls-4{stroke-width:0.22px;}.cls-6,.cls-7{stroke-width:2px;}</style></defs><title>ucv_logo</title><path id="path2" class="cls-1" d="M20,105.34l-2.87.94L17.1,106a3.23,3.23,0,0,0,1.4-1.57,2.72,2.72,0,0,0,.06-1.87,2.59,2.59,0,0,0-.91-1.28,2.71,2.71,0,0,0-1.47-.57A5.52,5.52,0,0,0,14,101a7.19,7.19,0,0,0-1.93.95A2.83,2.83,0,0,0,11,103.31,2.59,2.59,0,0,0,11,105a3.2,3.2,0,0,0,.81,1.33,5.18,5.18,0,0,0,1.62,1l-0.71.23a4.75,4.75,0,0,1-1.52-1.12,4.64,4.64,0,0,1-.9-1.67,5.38,5.38,0,0,1-.23-2.54,4,4,0,0,1,1-2.1A4.5,4.5,0,0,1,13,98.9a4.74,4.74,0,0,1,4.64,1A4.79,4.79,0,0,1,19,102a5.43,5.43,0,0,1,.22,2,3.05,3.05,0,0,0,0,.79,0.49,0.49,0,0,0,.25.29,0.82,0.82,0,0,0,.52,0Zm-1.6,10.81L17,113.45l-0.92.09a1.86,1.86,0,0,0-.7.18,0.58,0.58,0,0,0-.33.52,2.46,2.46,0,0,0,.28.83l-0.21.12-1.4-2.55,0.21-.12a1.3,1.3,0,0,0,.71.49,5,5,0,0,0,1.51,0l7.59-.65,0.06,0.11L19,118.73a4.37,4.37,0,0,0-.76,1.27,1,1,0,0,0,.1.66l-0.21.12-2-3.71,0.21-.12,0.08,0.15a1.33,1.33,0,0,0,.47.56,0.34,0.34,0,0,0,.33,0,0.77,0.77,0,0,0,.19-0.15s0.14-.16.33-0.41Zm0.31-.43,2-2.6-3.27.29Zm5.84,6.3-1.9,1.55a2.74,2.74,0,0,0-.64.63,0.65,0.65,0,0,0,0,.42,2.1,2.1,0,0,0,.43.71l-0.18.15L19.46,122l0.18-.15a2,2,0,0,0,.6.57,0.66,0.66,0,0,0,.42.05,2.69,2.69,0,0,0,.74-0.49l4.39-3.58a2.75,2.75,0,0,0,.64-0.63,0.65,0.65,0,0,0,0-.42,2,2,0,0,0-.43-0.71l0.19-.15,2.55,3.16a8.91,8.91,0,0,1,1.28,1.95,2.36,2.36,0,0,1,.13,1.45,2.19,2.19,0,0,1-.78,1.23,2.05,2.05,0,0,1-1.68.47,2.85,2.85,0,0,1-1.24-.59l-1,3.5a4.62,4.62,0,0,0-.19.91,1.11,1.11,0,0,0,.21.62l-0.18.15-1.73-2.14L25,122.48Zm3.32-2.7-3,2.42L25.18,122a4.11,4.11,0,0,0,1,.94,1.33,1.33,0,0,0,.9.17,2.16,2.16,0,0,0,1-.51,1.71,1.71,0,0,0,.28-2.77Zm3.63,12.16-2.32-2-0.83.4a1.87,1.87,0,0,0-.59.41,0.58,0.58,0,0,0-.13.61,2.44,2.44,0,0,0,.54.68l-0.16.18-2.18-1.91,0.16-.18a1.29,1.29,0,0,0,.84.21,5,5,0,0,0,1.42-.5l6.91-3.22,0.09,0.08L33,133.71a4.39,4.39,0,0,0-.28,1.46,1,1,0,0,0,.31.58l-0.16.18-3.18-2.78,0.16-.18,0.13,0.11a1.32,1.32,0,0,0,.63.36,0.34,0.34,0,0,0,.3-0.13,0.78,0.78,0,0,0,.13-0.21s0.08-.2.17-0.49Zm0.15-.51,1-3.13-3,1.39Zm13.52,2.48L43.6,136l-0.21-.13a3.26,3.26,0,0,0,.07-2.11,2.71,2.71,0,0,0-1.15-1.47,2.56,2.56,0,0,0-1.52-.4,2.71,2.71,0,0,0-1.49.52,5.57,5.57,0,0,0-1.49,1.62,7.29,7.29,0,0,0-.88,2,2.86,2.86,0,0,0,0,1.73,2.57,2.57,0,0,0,1.12,1.29,3.16,3.16,0,0,0,1.47.5,5.17,5.17,0,0,0,1.88-.29l-0.4.64a4.72,4.72,0,0,1-1.88.13,4.6,4.6,0,0,1-1.76-.7,5.33,5.33,0,0,1-1.8-1.8,4,4,0,0,1-.57-2.26,4.56,4.56,0,0,1,.68-2.22,4.61,4.61,0,0,1,1.8-1.67,4.54,4.54,0,0,1,2.41-.54,4.73,4.73,0,0,1,2.32.73A5.36,5.36,0,0,1,43.67,133a3.07,3.07,0,0,0,.51.6,0.48,0.48,0,0,0,.38.06,0.82,0.82,0,0,0,.42-0.3Zm3.21,9-2.81-1.26-0.68.63a1.87,1.87,0,0,0-.45.57,0.58,0.58,0,0,0,.05.62,2.43,2.43,0,0,0,.72.49l-0.1.22L42.5,142.5l0.1-.22a1.29,1.29,0,0,0,.86,0,5.08,5.08,0,0,0,1.21-.9l5.67-5.11,0.11,0,0,7.85a4.4,4.4,0,0,0,.15,1.48,1,1,0,0,0,.47.47l-0.1.22-3.85-1.72,0.1-.22,0.16,0.07a1.31,1.31,0,0,0,.71.16,0.34,0.34,0,0,0,.25-0.21,0.78,0.78,0,0,0,.06-0.23s0-.21,0-0.52Zm0-.53,0-3.29L46,140.82Zm12.74-1.36-0.92,2.77L60,143.21a3,3,0,0,0-.26-2,2.31,2.31,0,0,0-1.25-1.17,1.46,1.46,0,0,0-1.09,0,1.06,1.06,0,0,0-.64.63,1,1,0,0,0,0,.53A2.14,2.14,0,0,0,57,142a13.32,13.32,0,0,0,1.05,1.19,6.25,6.25,0,0,1,1.45,2.05,2.42,2.42,0,0,1,0,1.63,2.48,2.48,0,0,1-1.44,1.48,3,3,0,0,1-2.3,0,3.51,3.51,0,0,1-.7-0.35,6.1,6.1,0,0,1-.75-0.61,1.4,1.4,0,0,0-.43-0.29,0.62,0.62,0,0,0-.38,0,0.9,0.9,0,0,0-.42.27l-0.22-.08L54,144.14l0.22,0.08a3.81,3.81,0,0,0,.3,2.38,2.55,2.55,0,0,0,1.38,1.29,1.62,1.62,0,0,0,1.21,0,1.19,1.19,0,0,0,.76-1.34,1.92,1.92,0,0,0-.28-0.69,7.64,7.64,0,0,0-.88-1,10.3,10.3,0,0,1-1.26-1.53,3.07,3.07,0,0,1-.44-1.14,2.3,2.3,0,0,1,.12-1.15,2.38,2.38,0,0,1,1.33-1.41,2.66,2.66,0,0,1,2.06,0,3.29,3.29,0,0,1,.74.38,4.07,4.07,0,0,1,.59.52,1.77,1.77,0,0,0,.5.41,0.34,0.34,0,0,0,.28,0,1.14,1.14,0,0,0,.34-0.4Zm10.15,8.81-3.72-.46,0.16-1.33L71.45,148ZM89,143.46v0.24a1.4,1.4,0,0,0-.84.52,7.9,7.9,0,0,0-.78,1.53l-2.88,6.75H84.29l-3.11-6.91a8.94,8.94,0,0,0-.75-1.47,1,1,0,0,0-.69-0.27v-0.24l4.17-.07v0.24H83.78a1.47,1.47,0,0,0-.77.15,0.32,0.32,0,0,0-.14.29,1,1,0,0,0,.05.27c0,0.1.16,0.39,0.36,0.84l1.93,4.33,1.65-3.91a9.72,9.72,0,0,0,.36-1,1.43,1.43,0,0,0,.06-0.41,0.57,0.57,0,0,0-.11-0.34,0.62,0.62,0,0,0-.3-0.22,2,2,0,0,0-.73-0.1v-0.24Zm5.7-.65,0.92,3.45,0.17,0a1.38,1.38,0,0,0,1-.82,3.26,3.26,0,0,0,.06-1.62l0.24-.06,1.18,4.43-0.24.06a3.47,3.47,0,0,0-.63-1.1,1.4,1.4,0,0,0-.72-0.47,2.19,2.19,0,0,0-1,.09l0.63,2.38a3.49,3.49,0,0,0,.29.84,0.51,0.51,0,0,0,.29.2,1,1,0,0,0,.55,0L98,150a3.12,3.12,0,0,0,1.74-1.06,3.17,3.17,0,0,0,.57-1.95l0.23-.06,0.34,2.79-7.27,2-0.06-.23,0.28-.08a1.2,1.2,0,0,0,.55-0.29,0.58,0.58,0,0,0,.17-0.37,2.61,2.61,0,0,0-.14-0.81l-1.48-5.57a4.55,4.55,0,0,0-.22-0.7,0.62,0.62,0,0,0-.32-0.27,1.1,1.1,0,0,0-.69,0l-0.28.08-0.06-.23,7-1.9,0.67,2.5-0.23.06a3.15,3.15,0,0,0-.86-1.18,1.91,1.91,0,0,0-1.08-.34,5,5,0,0,0-1.33.24Zm9.5-3.5,5.88,3.63-1.28-3.54a1.79,1.79,0,0,0-.57-0.92,1.24,1.24,0,0,0-1.09,0l-0.08-.23,2.7-1,0.08,0.23a2.17,2.17,0,0,0-.63.43,0.73,0.73,0,0,0-.15.45,2.55,2.55,0,0,0,.2.86l2.48,6.86-0.21.08-8-4.83,1.89,5.24a1.22,1.22,0,0,0,.67.84,1.24,1.24,0,0,0,.83,0l0.19-.07,0.08,0.22-2.9,1.06-0.08-.22a1.08,1.08,0,0,0,.77-1.65l-2.1-5.81-0.25-.16a1.72,1.72,0,0,0-.61-0.26,1.47,1.47,0,0,0-.61.1l-0.08-.23Zm9.19-4.23,1.77,3.09,0.15-.09a1.39,1.39,0,0,0,.78-1.06,3.26,3.26,0,0,0-.36-1.58l0.21-.12,2.28,4-0.21.12a3.46,3.46,0,0,0-.89-0.9,1.4,1.4,0,0,0-.82-0.27,2.2,2.2,0,0,0-.9.34l1.23,2.14a3.5,3.5,0,0,0,.49.74,0.51,0.51,0,0,0,.33.11,1,1,0,0,0,.52-0.18l0.45-.26a3.14,3.14,0,0,0,1.41-1.48,3.18,3.18,0,0,0,.05-2l0.2-.12,1,2.61-6.52,3.79-0.12-.21,0.25-.15a1.2,1.2,0,0,0,.46-0.43,0.58,0.58,0,0,0,.07-0.4,2.6,2.6,0,0,0-.34-0.74l-2.86-5a4.43,4.43,0,0,0-.39-0.62,0.61,0.61,0,0,0-.38-0.18,1.1,1.1,0,0,0-.67.18l-0.25.15-0.12-.21,6.31-3.67,1.29,2.24-0.21.12a3.14,3.14,0,0,0-1.13-.92,1.91,1.91,0,0,0-1.13,0,5,5,0,0,0-1.23.58Zm10.11-8.38,1.53,9.62,1.25-1.09a6.26,6.26,0,0,0,1.14-1.2,2.88,2.88,0,0,0,.44-1.52,3.52,3.52,0,0,0-.51-1.77l0.19-.17,1.8,2.62-6,5.26-1.53-9.64-1,.85a6.53,6.53,0,0,0-.72.69,2.38,2.38,0,0,0-.42.81,2.11,2.11,0,0,0-.06.93,3.44,3.44,0,0,0,.37,1.06l-0.18.16-1.49-2.09Zm0.41-.49L127,123l0.17,0.17-0.16.16a1.6,1.6,0,0,0-.41.58,0.61,0.61,0,0,0,0,.4,3.18,3.18,0,0,0,.61.71l3.07,3a4.34,4.34,0,0,0,1.24,1,1.48,1.48,0,0,0,.86,0,1.91,1.91,0,0,0,.89-0.56,2.2,2.2,0,0,0,.61-1.09,2,2,0,0,0-.11-1.15,5.38,5.38,0,0,0-1.23-1.54L130,122.11a2.06,2.06,0,0,0-.69-0.49,0.72,0.72,0,0,0-.46,0,1.83,1.83,0,0,0-.67.49l-0.17-.17,2.09-2.18,0.17,0.17-0.12.13a1.16,1.16,0,0,0-.32.54,0.84,0.84,0,0,0,.07.56,2.28,2.28,0,0,0,.47.58l2.38,2.31a8.69,8.69,0,0,1,1.45,1.7,2.51,2.51,0,0,1,.21,1.59,3.58,3.58,0,0,1-1.07,1.95,4.07,4.07,0,0,1-1.43,1.05,2.57,2.57,0,0,1-1.58.12,3.67,3.67,0,0,1-1.48-1l-3.07-3a3,3,0,0,0-.73-0.59,0.61,0.61,0,0,0-.41,0,1.72,1.72,0,0,0-.6.48Zm8.38-9.37,2.94,2,0.1-.14a1.39,1.39,0,0,0,.24-1.29,3.24,3.24,0,0,0-1-1.26l0.14-.2,3.78,2.57-0.14.2a3.43,3.43,0,0,0-1.19-.42,1.4,1.4,0,0,0-.85.12,2.22,2.22,0,0,0-.67.7l2,1.38a3.45,3.45,0,0,0,.76.44,0.51,0.51,0,0,0,.35,0,1,1,0,0,0,.39-0.39l0.29-.43a2.84,2.84,0,0,0-.21-3.8l0.13-.2,2.08,1.88-4.21,6.28-0.2-.13,0.16-.24a1.22,1.22,0,0,0,.23-0.58,0.58,0.58,0,0,0-.11-0.39,2.58,2.58,0,0,0-.63-0.52l-4.75-3.22a4.49,4.49,0,0,0-.62-0.38,0.62,0.62,0,0,0-.42,0,1.1,1.1,0,0,0-.52.46l-0.16.24-0.2-.13,4.07-6.08,2.14,1.45-0.14.2a3.12,3.12,0,0,0-1.42-.33,1.92,1.92,0,0,0-1,.46,5.1,5.1,0,0,0-.85,1.06Zm12-10.46,2.51,1.78L143.08,115l-0.21-.12,0.14-.25a1.22,1.22,0,0,0,.18-0.6,0.6,0.6,0,0,0-.14-0.38,2.68,2.68,0,0,0-.67-0.46l-5-2.79a2.9,2.9,0,0,0-.76-0.35,0.64,0.64,0,0,0-.39.11,1.16,1.16,0,0,0-.39.45l-0.14.25-0.21-.12,2.25-4.09,0.21,0.12-0.18.33a1.22,1.22,0,0,0-.18.6,0.64,0.64,0,0,0,.14.38,2.68,2.68,0,0,0,.67.46l4.85,2.71a2.82,2.82,0,0,0,.78.35,0.51,0.51,0,0,0,.39-0.13,3.06,3.06,0,0,0,.43-0.66l0.35-.64a2.5,2.5,0,0,0,.35-1.14,2.17,2.17,0,0,0-.29-1.08,6.25,6.25,0,0,0-1-1.32Zm2.65-6-1,2.93,0.68,0.63a1.86,1.86,0,0,0,.6.4,0.57,0.57,0,0,0,.61-0.1,2.44,2.44,0,0,0,.43-0.76l0.22,0.08-0.94,2.76-0.22-.08a1.31,1.31,0,0,0-.12-0.86,5.09,5.09,0,0,0-1-1.14L140.66,99l0-.12,7.77-.65a4.32,4.32,0,0,0,1.45-.28,1,1,0,0,0,.42-0.51l0.22,0.08-1.37,4-0.22-.08,0.06-.17a1.33,1.33,0,0,0,.1-0.72,0.34,0.34,0,0,0-.23-0.23,0.76,0.76,0,0,0-.24,0l-0.52,0Zm-0.52.05-3.26.25,2.4,2.25Z" transform="translate(0 0)"/><path id="path4" class="cls-2" d="M48.19,80.63s-0.84-2.48-.07-3.89a3.35,3.35,0,0,1,1.19-1.56,2.41,2.41,0,0,1-.63-1.7c-0.14-1.35-.14-3,0.63-3.47s20.3-6.23,20.3-6.23L106.71,68,107,79.43l-7.24,3a38.91,38.91,0,0,0-9.7,0A44.76,44.76,0,0,0,80.51,85c-1.19.5-5,2.12-5,2.12Z" transform="translate(0 0)"/><path id="path6" class="cls-2" d="M49.31,70L82.4,76.88" transform="translate(0 0)"/><path id="path8" class="cls-2" d="M49.31,75.18l32.46,7.58" transform="translate(0 0)"/><path id="path10" class="cls-3" d="M106.71,68L84.23,76.1s-2.32,2.27-1.62,4.32,1.12,2.34,1.12,2.34L83.2,84.05a31.88,31.88,0,0,1,7.92-1.78c3.59-.18,7,0.28,8.64.14s7.24-3,7.24-3-1.9-.5-2.11-1.91,2.53-4.25,2-3.79-2.25-.53-2.11-1.66a5.89,5.89,0,0,1,.91-2.69A16,16,0,0,0,106.71,68Z" transform="translate(0 0)"/><path id="path12" class="cls-3" d="M59.25,72.07a4.18,4.18,0,0,0-.94,2.75,17.13,17.13,0,0,0,.26,2.51" transform="translate(0 0)"/><path id="path14" class="cls-3" d="M60.39,72.12a4.18,4.18,0,0,0-.94,2.75,17.13,17.13,0,0,0,.26,2.51" transform="translate(0 0)"/><path id="path16" class="cls-3" d="M71.57,75.4a4.18,4.18,0,0,0-.94,2.75,17.13,17.13,0,0,0,.26,2.51" transform="translate(0 0)"/><path id="path18" class="cls-3" d="M72.71,75.45a4.18,4.18,0,0,0-.94,2.75A17.13,17.13,0,0,0,72,80.71" transform="translate(0 0)"/><path id="path20" class="cls-3" d="M58.2,77.39a4.18,4.18,0,0,0-.94,2.75,17.12,17.12,0,0,0,.26,2.51" transform="translate(0 0)"/><path id="path22" class="cls-3" d="M59.35,77.44a4.18,4.18,0,0,0-.94,2.75,17.12,17.12,0,0,0,.26,2.51" transform="translate(0 0)"/><path id="path24" class="cls-3" d="M69.89,80.55a4.18,4.18,0,0,0-.94,2.75,17.12,17.12,0,0,0,.26,2.51" transform="translate(0 0)"/><path id="path26" class="cls-3" d="M71,80.6a4.18,4.18,0,0,0-.94,2.75,17.12,17.12,0,0,0,.26,2.51" transform="translate(0 0)"/><path id="path28" class="cls-4" d="M102.69,80.07l-0.42-1.88-2.8,1.45a2.07,2.07,0,0,0,1.36.68,10.37,10.37,0,0,0,1.87-.26h0Z" transform="translate(0 0)"/><path id="path30" class="cls-2" d="M80.77,24.3V44.52l6.72-19.23L80.77,44.52,93.54,28.16,80.77,44.52,98.35,32.64,80.77,44.52l20.67-6.25L80.77,44.52h0l20.67,6.25L80.77,44.52,98.35,56.41,80.77,44.52,93.54,60.89,80.77,44.52l6.72,19.23L80.77,44.52v0L74.05,63.76l6.72-19.23L68,60.89,80.77,44.52,63.18,56.41,80.77,44.52,60.1,50.77l20.67-6.25h0L60.1,38.27l20.67,6.25L63.18,32.64,80.77,44.52,68,28.16,80.77,44.52,74.05,25.29l6.72,19.23V24.3Z" transform="translate(0 0)"/><path id="path32" class="cls-4" d="M74.25,49.46s-4.13,3.23-4.87,3.37-0.91.28-1.06-.05,0.25-1.36-.11-1.5A4.29,4.29,0,0,0,67,51.16a2.72,2.72,0,0,0-.67,2A14.45,14.45,0,0,0,68.12,57a9.39,9.39,0,0,0,2.76,1.95l0.85-.32-0.87-1.4a10.16,10.16,0,0,1-2-1.37c-0.5-.56-0.88-1.23-0.41-1.4s1.59-.91,1.77-0.25a20.16,20.16,0,0,0,1.09,2.92,27.28,27.28,0,0,0,3.27,4.09l2.09,1.55a4.3,4.3,0,0,1,1,2.62A3.77,3.77,0,0,1,75.89,68C75.67,68.13,72.6,70,72.6,70a0.62,0.62,0,0,0-.55.89,2.67,2.67,0,0,0,1.46,1.84,17.92,17.92,0,0,0,5.18,1.06c2.65,0.17,7.84-1.27,7.84-1.27a1,1,0,0,0,.59-1.13c-0.24-.77-4-3.41-4.53-4a2.85,2.85,0,0,1-1-2.46c0.13-1.29,4.88-5.8,4.88-5.8s2-2.85,2.15-4.23,1.12-1.29,1.12-1.29a0.72,0.72,0,0,1,.85.59c0,0.68.1,1.58-.75,1.83s-0.73,0-.87.62,0.71,0.79.92,0.75,1.6-.74,1.6-0.74a21.05,21.05,0,0,0,1.63-2.82,2.38,2.38,0,0,0-.15-2.37,2.48,2.48,0,0,0-1.3-1,1.23,1.23,0,0,0-.82.32,6,6,0,0,1,.06,1.61,0.55,0.55,0,0,1-.7.24L88.94,52l-4.69-3,0.29-1.1-1.76-1.23s-3.71.86-5,.48a10,10,0,0,1-2-.85L74,47.71l0.61,1Z" transform="translate(0 0)"/><path id="path34" class="cls-5" d="M80,35.7c-3.86,0-7,3.54-7,7.91s3.13,7.91,7,7.91,7-3.54,7-7.91S83.86,35.7,80,35.7Z" transform="translate(0 0)"/><path id="path36" class="cls-2" d="M76.3,45.91l-2.45,1.93,0.37,0.91-4.84,4.07a0.94,0.94,0,0,1-1.06-.05,2.17,2.17,0,0,1-.11-1.5A1.47,1.47,0,0,0,67,51.16c-0.59.27-.43,2.79-0.43,2.79a13.79,13.79,0,0,0,1.7,3.22,11.77,11.77,0,0,0,2.61,1.77l0.85-.32s0.11-1.23-.37-1.5-1-.32-1.54-0.7-1.54-.8-1.44-1.45,0.11-.7.58-0.7,1.33-.16,1.49.59a14.75,14.75,0,0,0,1.81,4,24.07,24.07,0,0,0,3.08,2.95,5.13,5.13,0,0,1,2.29,3.16A2.2,2.2,0,0,1,77,67.08a35.66,35.66,0,0,1-4,2.73,1.22,1.22,0,0,0-1,1.13,2.05,2.05,0,0,0,.85,1.5s1.33,1,4.57,1.13a22.88,22.88,0,0,0,7-.54c1.17-.43,2.23-0.27,2.55-0.8a2.14,2.14,0,0,0-.16-1.55s-4.31-3.16-4.63-3.48a4.75,4.75,0,0,1-.64-3.06c0.32-.7,5.37-5.47,5.37-5.47a1.55,1.55,0,0,0,1,.27,1.15,1.15,0,0,0,.85-1.55A2.91,2.91,0,0,1,88.59,55c0.43-.8.32-1.29,1.12-1.29s0.9,0,.85.59a4.47,4.47,0,0,0,.16,1.34,2.9,2.9,0,0,0-1,.54c-0.43.38-.64-0.8-0.8,0.21a0.91,0.91,0,0,0,.58,1.18s2-.38,1.91-0.8,1.17-1.29,1.54-2.52a3,3,0,0,0,.05-2.47,1.93,1.93,0,0,0-.74-0.91,1.46,1.46,0,0,0-1.38-.21c-0.32.27,0.11,1,.11,1.23s-0.21,1.07-.64,1S84.33,49,84.33,49l0.21-1.07-1.76-1.23a2.75,2.75,0,0,1,.43-1.77c0.53-.59.8-2.47,0.16-2.95a2.76,2.76,0,0,1-1.38-2c-0.11-1.07-.43-1.66.05-2s-1.06,0-1.06,0a8.72,8.72,0,0,0-1.17,2.25c0.05,0.43-.21.54-0.64,1.07s-0.85.37-1,1.55a9.93,9.93,0,0,0,.11,2.63,0.43,0.43,0,0,1-.43.64,1.37,1.37,0,0,1-1.76-1.18c-0.27-1.23-1.06-2.57-.21-3.59s1.44-.59,1.44-1.66-0.64-1.66.59-2.2,1.28-.86,1.28-0.86a5.66,5.66,0,0,0,.43,1.34" transform="translate(0 0)"/><path id="path38" class="cls-3" d="M75.4,47.52L75,47s0.11,0.88,2.51,1a16,16,0,0,0,4.84-.27,10.9,10.9,0,0,0,1.36-.46" transform="translate(0 0)"/><path id="path40" class="cls-3" d="M74.23,48.75a8.13,8.13,0,0,0,2.77,1,18.85,18.85,0,0,0,4.57-.11C83,49.34,84.33,49,84.33,49" transform="translate(0 0)"/><path id="path42" class="cls-2" d="M70.07,52.25a12.48,12.48,0,0,0,5,1.54,56.27,56.27,0,0,0,8.4.16,14.48,14.48,0,0,0,5-1.34,2.11,2.11,0,0,0,.74-0.49" transform="translate(0 0)"/><path id="path44" class="cls-3" d="M76.83,67.29l0.19,0a9,9,0,0,0,2.68.12c1.81-.16,2.55-0.27,2.55-0.27l0.68,0.55a4,4,0,0,1-2.23.74,16.29,16.29,0,0,1-3.88-.11C76.41,68.21,75.89,68,75.89,68Z" transform="translate(0 0)"/><path id="path46" class="cls-2" d="M73.75,69.36a13,13,0,0,0,5.16,1.26A19.56,19.56,0,0,0,84.07,70a3.43,3.43,0,0,1,1.51-.27l0.81,0.6s-0.78.69-3.65,1.06-5.43.59-7.23,0.11a14.82,14.82,0,0,1-3.18-1.27Z" transform="translate(0 0)"/><path id="path48" class="cls-2" d="M75.57,49.37l-3.1,3.92S72,54.91,73.64,57.7s3.54,5.63,3.77,6.43l0.22,0.8" transform="translate(0 0)"/><path id="path50" class="cls-2" d="M77,49.71l-2,4.07a11.43,11.43,0,0,0,1.7,6.59,10.63,10.63,0,0,1,1.65,6.38" transform="translate(0 0)"/><path id="path52" class="cls-2" d="M78.27,49.79l-1.13,4.14a24.59,24.59,0,0,0,1.39,7,19.16,19.16,0,0,1,1.17,6.54" transform="translate(0 0)"/><path id="path54" class="cls-3" d="M80.44,67.39s-0.25-2.13-.25-3.42a23.15,23.15,0,0,1,1.28-5.9c0.85-2.84.22-4,.22-4l-1.07-4A17.77,17.77,0,0,1,83,49.31c1.29-.33,3.86,1.05,4.38,1.63a4.07,4.07,0,0,1,1.08,2.52c-0.1.74-1,5.59-3.35,7.09a11.31,11.31,0,0,0-3.33,3s-1,.05-0.69,1.68a3.82,3.82,0,0,0,.8,2.05Z" transform="translate(0 0)"/><path id="path56" class="cls-3" d="M81.86,49.55l2.28,4.31a9.83,9.83,0,0,1-.76,4.27,44.46,44.46,0,0,0-2.18,5.41,6,6,0,0,0,.16,3.27c0.18,0.46.12,0.47,0.12,0.47" transform="translate(0 0)"/><path id="path58" class="cls-3" d="M83,49.31l3.55,4A6.57,6.57,0,0,1,86,57,38.32,38.32,0,0,1,82.68,62a3.59,3.59,0,0,0-1.06,2.09,3.48,3.48,0,0,1-.07.86" transform="translate(0 0)"/><path id="path60" class="cls-3" d="M86.93,50.68a3.8,3.8,0,0,1,1.49,1.93A19.76,19.76,0,0,1,87.74,57L87,58.67" transform="translate(0 0)"/><path id="path62" class="cls-3" d="M81.64,37.73l-0.05.1c-0.23.44-1.09,2.28-.15,3.24s1.25,1.38.91,2.42A5,5,0,0,0,81.78,46a0.84,0.84,0,0,0,1,.64A1.82,1.82,0,0,1,83,45.17a2.72,2.72,0,0,0,.71-1.75,4.72,4.72,0,0,0-.17-1.27,2.68,2.68,0,0,1-1.12-1.07,7.22,7.22,0,0,1-.55-1.92l-0.24-1.43h0Z" transform="translate(0 0)"/><path id="path64" class="cls-3" d="M78.59,37a3.23,3.23,0,0,0-.35,2.2,3.6,3.6,0,0,1,.29,2c-0.06.65-.41,2.08-0.41,2.08L78.2,44.9S77,45,77.1,43.43A4.62,4.62,0,0,1,77.85,41s-0.91,0-.72-0.7a4.65,4.65,0,0,0,.08-1.52l0.1-1Z" transform="translate(0 0)"/><path id="path66" class="cls-3" d="M76.3,45.91a15.84,15.84,0,0,1,2.23.63c0.63,0.29,2.11.58,1.94,0.06s0.74-1.27.74-1.27l0.54,0.05s-0.26,1.07.39,1.18a2.43,2.43,0,0,1,.95.32l0.57,0.4A11.35,11.35,0,0,1,79.9,48a14.37,14.37,0,0,1-4.09-.36A3,3,0,0,1,75,47Z" transform="translate(0 0)"/><path id="path68" class="cls-4" d="M88.43,52.61l1.13-.26s0.7,0.65,1,.39A1.86,1.86,0,0,0,91,51.86a1.74,1.74,0,0,0-.22-1,1.84,1.84,0,0,1,1.5,0c0.44,0.4,1.55,2.36.78,3.07a10.93,10.93,0,0,0-1.63,2.82,14.6,14.6,0,0,1-1.6.74,1.45,1.45,0,0,1-.84-0.4l-0.52-.56,1.14-.3s1.29-.35,1.08-0.61a7.93,7.93,0,0,1-.36-1.89l-0.65,0L89,54.11Z" transform="translate(0 0)"/><path id="path70" class="cls-2" d="M78.26,91.52s15.61-24.1,18.61-27,10.2-8.87,11.8-9.48a7.74,7.74,0,0,1,2.4-.6l-0.5,1.21-1.7,1.61-1.5.4,1.5-.4-0.3,1.92-3.5,1.61,1.75-.81,0.25,1.31-2.6,2.12-3.2,1,3.2-1,0.3,1.61-7.1,3.33,4.31-2-0.13,1.16L101.07,69l-1.16.35-2.84.86,3.42-1,0.33,0.93-2,1.82-4.2,1,3.4,0.4-1.5,1.31L92,76.8l3.8-.4-0.5,1.51-2.9,1.31-3,1h2.5l2-.4-0.4,1.11-2.35,1.33-4.68.79-1.22.39-2,2.53s-2.8,5.34-2.8,6-2,.71-2,0.71Z" transform="translate(0 0)"/><path id="path72" class="cls-3" d="M71.24,100.16l4.18-9.77a2.84,2.84,0,0,1,2.64-1.44,7.8,7.8,0,0,0,1.78.15l-0.79,1.21a2.33,2.33,0,0,0-2,.31c-0.66.67-1.51,1.43-.11,1.78s3.63,0.89,4.52.67a6.16,6.16,0,0,0,2-1.22,1.61,1.61,0,0,0-1.32-1.22c-1.16-.23.22-1.22,0.22-1.22s1.87-.22,2.09.89,4.3,9.32,4.3,9.32l-3.19,3.77H75Z" transform="translate(0 0)"/><path id="path74" class="cls-2" d="M75.42,90.39s-1.33,2.06.66,3a9.9,9.9,0,0,0,4.25,1.11,7.12,7.12,0,0,0,3.82-1.41,2,2,0,0,0,.63-1.95l-0.27-.72" transform="translate(0 0)"/><path id="path76" class="cls-2" d="M78.15,94.22L75,103.38" transform="translate(0 0)"/><path id="path78" class="cls-2" d="M82.34,94.11l3.21,9.27" transform="translate(0 0)"/><path id="path80" class="cls-2" d="M48.89,88.17s3.64,5.39,4.44,8.6,1.14,5.27,3,6.65,4.55,0.46,4.55.46l10.4-3.72,4.18-9.77,2.64-1.44,1.78,0.15,3.42-5.21s-6,2.12-7.75,3.26A19.39,19.39,0,0,1,67.43,90c-3,.23-8,0.11-8,0.11s-3-3.55-3.18-4.93a4.65,4.65,0,0,0-.57-1.83,7.12,7.12,0,0,0-3.41.69,23.33,23.33,0,0,0-2.5,1.72Z" transform="translate(0 0)"/><path id="path82" class="cls-2" d="M59.47,90.12s3.95,4.29,4.52,5.21A5.7,5.7,0,0,1,65,98.8c-0.19,1.11-.67,2.7-1.1,2.94s-2.72,1.11-3.3.53-4-6.46-4-6.46a4,4,0,0,0-1,1.2c-0.14.48-2.82-3.76-3.25-5.11a40.68,40.68,0,0,0-2.06-4.38l-0.65-.87-0.17-.22" transform="translate(0 0)"/><path id="path84" class="cls-2" d="M59.74,100.29s-0.53-.87.72-1.54,1.29-1,1.29-1l-2.29-3.23a2.31,2.31,0,0,0-1.48.34,12.88,12.88,0,0,1-1.29,1l2.8,4.72Z" transform="translate(0 0)"/><path id="path86" class="cls-3" d="M48.89,88.17l0.66-1.74a17.65,17.65,0,0,1,2.22,3.88,35.24,35.24,0,0,0,2.56,5.1A14.15,14.15,0,0,0,55.68,97l1-1.2,4,6.46a3.36,3.36,0,0,0,1.23.14c0.44-.09,1.76-0.53,1.76-0.53a3.58,3.58,0,0,0-.24,1.08,21.94,21.94,0,0,1-3.25,1.09,8.67,8.67,0,0,1-3.39-.34,4.76,4.76,0,0,1-2.22-2.66c-0.55-1.68-.92-5.2-2.28-7.08s-0.5-1.18-1.63-3-1.73-2.77-1.73-2.77h0Z" transform="translate(0 0)"/><path id="path88" class="cls-2" d="M84.64,90.82l2.71,5.91a5.7,5.7,0,0,0,3.32-.48,16.3,16.3,0,0,1,7.81-1.78c4,0,10.76,1.63,10.76,1.63a7.79,7.79,0,0,1-4.05-4.6,42.86,42.86,0,0,1-2-6.39,1.46,1.46,0,0,0-.81-1c-0.59-.37-0.57-1.51-3.75-1.65s-7.51-.16-7.51-0.16l-5.29,1L83.17,86l-1.59,3.14a4.52,4.52,0,0,1,2,.36,4.12,4.12,0,0,1,1.18,1.7" transform="translate(0 0)"/><path id="path90" class="cls-4" d="M98.47,94.47l3.61,4.83,5.23,2.08,1.18,1.48s1.92-1,1.92-2.6a13.74,13.74,0,0,0-1.18-4.16L103.89,95l2,2.86a16.35,16.35,0,0,1-2.87.67c-0.15-.15-2.5-4-2.5-4Z" transform="translate(0 0)"/><path id="path92" class="cls-4" d="M100.72,82.77c0.19,0.38,1.4,2,.74,2.22a3.08,3.08,0,0,0-1.3,1.14,2.21,2.21,0,0,0,.89,1.22,2.74,2.74,0,0,1,1,1.39l-1.62.33,1.86,0.49-0.73,1.06,1.13,0.08,0.65,0.9L101.7,92a8.11,8.11,0,0,1,2.51.24,3.48,3.48,0,0,1,1.38,1.22l-3.4-.41L103,93.89l3.76,0.32L107.5,95s0.85,1.19,1,.78-2.67-2.45-3.21-3.86-1.7-5-1.7-5L102.9,84.5l-2.06-1.63Z" transform="translate(0 0)"/><path id="path94" class="cls-2" d="M56.1,105.77l-0.54.76a15.84,15.84,0,0,1,1,3.46c0,1,3,1.73,3,1.73l0.11-2.59,1.5-.11a5.28,5.28,0,0,1,2.58,1.73c1.4,1.51,2.47,2.59,2.47,2.59v-3.78c1.07,1.19,1.29,2.05,2.68,3a3.19,3.19,0,0,1,1.5,2.05l9,2.7L93,112.68s-0.54-2.27.86-2.16a2.69,2.69,0,0,1,2,1.3l1.61-.76s0.21-3.24,1.29-1.94,2.58-.32,2.58-0.32-0.64-1.73,1.07-1.73a15.33,15.33,0,0,1,3.11.32s-1.07-1.51-.64-2.16A5.64,5.64,0,0,1,107.2,104l1.72,0.54a2.37,2.37,0,0,0-1-2.46,10.83,10.83,0,0,0-2.15-1.36l-15.09-4.5-3.32.48,1.4,2.87-3.19,3.77H75l-4.32-3Z" transform="translate(0 0)"/><path id="path96" class="cls-2" d="M58.3,105L80,109.88l26.82-8.49" transform="translate(0 0)"/><path id="path98" class="cls-3" d="M89,107s1.22,3.49.9,4.79a8.55,8.55,0,0,1-.91,2.23l2.44-.83a7.92,7.92,0,0,0,.61-3.45,22,22,0,0,0-.88-3.42Z" transform="translate(0 0)"/><path id="path100" class="cls-4" d="M99.25,104.58a5.28,5.28,0,0,1,1.07,1.73,24.62,24.62,0,0,1-.18,3.27l1.25-.78s-1.07-.72,0-1.22a1.36,1.36,0,0,0,.78-1.24,2.75,2.75,0,0,0-.35-1.43,11.06,11.06,0,0,1-.74-1.69l-2,.63Z" transform="translate(0 0)"/><path id="path102" class="cls-2" d="M80.07,117.1a4.18,4.18,0,0,0,1.15-3A8.32,8.32,0,0,0,80,109.88" transform="translate(0 0)"/><path id="path104" class="cls-2" d="M56.1,105.77l22.33,5.29s1.4,2.05.86,3.35-0.86,1.3-.86,1.3l-8.6-2.25a17,17,0,0,1-2.44-2.35c-0.71-1-1.2-1.56-1.2-1.56v3.78A20.06,20.06,0,0,0,63,110a6.59,6.59,0,0,0-2.55-.94l-0.75.05-0.08,2-2.36-.37s-0.78-1.79-1.06-2.63a6.72,6.72,0,0,1,0-2.4h0Z" transform="translate(0 0)"/><path id="path106" class="cls-2" d="M77.35,121.62l-0.57,3s-9.74.28-17.57-4.4-14-10.37-17.94-16.34a51.21,51.21,0,0,1-5.74-12.21,42.88,42.88,0,0,1-1.27-5.41c-0.36-2.48-.46-13-0.46-13s0.18-1.84.91-1.74S35.54,73,35.54,73s0.18,6.52.18,9.09a29.6,29.6,0,0,0,4,16.43,71.45,71.45,0,0,0,10.11,13.22s6.65,5.51,11.66,7.34,6.28,2.39,6.92,2a4.23,4.23,0,0,1,2.09-.37c0.64,0,1.27,1.1,1.82,1.19s5-.31,5-0.31h0Z" transform="translate(0 0)"/><path id="path108" class="cls-2" d="M35.34,72.1c-0.13-.26.92-2.45,3.2-5.23a18,18,0,0,1,6.33-4.38A13.49,13.49,0,0,1,43.32,66c-1.12,1.78-5.38,4.77-5.94,4.95a3.54,3.54,0,0,1,1.42.26,2.49,2.49,0,0,1,1.29,2.13c-0.17.39-.9,2.3-1.81,2.26s-2.7-.63-2.71-1.13-0.23-2.36-.23-2.36h0Z" transform="translate(0 0)"/><path id="path110" class="cls-2" d="M34.72,71.46c0.17-.56,0-5.8,1.67-8.49s6.5-5.29,6.5-5.29A34.13,34.13,0,0,1,41.6,62a33.11,33.11,0,0,1-2.52,4.31,30,30,0,0,0-2.89,3.9c-0.59,1.09-1,1.66-1,1.66Z" transform="translate(0 0)"/><path id="path112" class="cls-2" d="M33.51,70.51a20.77,20.77,0,0,1-1.25-6.9c0.17-3.21.82-6.51,1.51-7.46a3.15,3.15,0,0,1,1-1.08A45.91,45.91,0,0,1,36,59.84,32.23,32.23,0,0,1,36,63.71a14,14,0,0,0-1,4c-0.18,2.14-.29,3.78-0.29,3.78a0.76,0.76,0,0,0-.6.49C34,72.38,33.51,70.51,33.51,70.51Z" transform="translate(0 0)"/><path id="path114" class="cls-2" d="M32.25,64.44a6,6,0,0,1-2.14-1.87A3.25,3.25,0,0,0,28,61.1l-0.73-.78s0.43,1.78.69,3.51A13.15,13.15,0,0,0,29.38,68,19.32,19.32,0,0,0,32,70.08a9.34,9.34,0,0,1,1.85,1.6c0.27,0.27-.79-2.34-1.07-3.62s-0.54-3.62-.54-3.62h0Z" transform="translate(0 0)"/><path id="path116" class="cls-2" d="M31.66,70.55a2.39,2.39,0,0,0-1.29.74c-0.73.69-1,.91-0.95,1.78a1.88,1.88,0,0,0,1.42,1.73c0.6,0,1.51.87,2,0s1-.69,1-0.93,0.12-1.38.12-1.38a0.53,0.53,0,0,0-.08-0.82c-0.47-.48-1.65-1.48-1.65-1.48Z" transform="translate(0 0)"/><path id="path118" class="cls-2" d="M35.72,81.78a9.7,9.7,0,0,1,1.83-4.9,29.77,29.77,0,0,1,4.51-4c1.13-.84,2.36-2,2.36-2a10.12,10.12,0,0,1-.69,2.89,26.34,26.34,0,0,1-2.81,4.63A23.33,23.33,0,0,1,37,81.37Z" transform="translate(0 0)"/><path id="path120" class="cls-2" d="M42.21,77.06a24.24,24.24,0,0,1,2.84-1c1-.21,1,0,1,0a7.67,7.67,0,0,0-1.64,1.75,15,15,0,0,1-3.11,3.88,12.61,12.61,0,0,1-4,1.5,5.41,5.41,0,0,1-1.51.07V81.78a27.53,27.53,0,0,0,3-1.56c0.73-.53,1.9-1.63,2.45-2.11a10.76,10.76,0,0,0,1-1.05h0Z" transform="translate(0 0)"/><path id="path122" class="cls-2" d="M36.15,85s0.63-1.66,1.61-1.63,0.78-.45,1.88.51,1.43,1.23,1.13,1.9a10.45,10.45,0,0,1-1,1.56,4,4,0,0,1-1.37,0l-1.1-.48a2.21,2.21,0,0,0-.9-0.3l-0.57,0a1.27,1.27,0,0,1-.07-1c0.23-.33.38-0.6,0.38-0.6h0Z" transform="translate(0 0)"/><path id="path124" class="cls-2" d="M38,93.31a15.45,15.45,0,0,1,1.31-5.06A27.92,27.92,0,0,1,43,84.08a15.71,15.71,0,0,0,1-1.47,32.17,32.17,0,0,1,.06,4A10.34,10.34,0,0,1,41.44,91,13.38,13.38,0,0,1,38,93.31h0Z" transform="translate(0 0)"/><path id="path126" class="cls-2" d="M38.3,94.94a22,22,0,0,0,4.57-1.41c1.07-.63,3.46-4.18,3.61-5.45A15.28,15.28,0,0,1,47,85.73a11,11,0,0,0-2,1.17,13.51,13.51,0,0,1-1.39,1.19A27.78,27.78,0,0,0,41.44,91c-0.18.51-2.31,1.7-2.31,1.7L38,93.31l-0.62.2L38,95Z" transform="translate(0 0)"/><path id="path128" class="cls-2" d="M25.22,71.8A29.38,29.38,0,0,0,29,74.86a6.33,6.33,0,0,1,2.55,2.63c0.32,0.8,1.86,3.86,1.86,3.86L34,83.24l0.16,2.49,0.06,0.49a2.32,2.32,0,0,0-2-1.19,16,16,0,0,1-4.52-1.18A13.5,13.5,0,0,1,24.85,80c-0.48-1.13-1.38-3.06-1.38-3.06a15.91,15.91,0,0,1,3.35.64c0.69,0.38-.69-1.61-1.17-2.68a9.07,9.07,0,0,1-.43-3.06h0Z" transform="translate(0 0)"/><path id="path130" class="cls-2" d="M26.82,77.54A7.68,7.68,0,0,1,30.44,80c1.17,1.72,2.66,4.29,2.66,4.29l1.11,1.44" transform="translate(0 0)"/><path id="path132" class="cls-2" d="M34.44,87.25s-2.35-.92-2.88-0.17a7.39,7.39,0,0,0-1,1.18,1.15,1.15,0,0,0,.16,1c0.64,1.18,2.23,3.11,3.14,2.68a1.27,1.27,0,0,0,.69-1.39L34.81,89Z" transform="translate(0 0)"/><path id="path134" class="cls-2" d="M28.47,87l2.07,1.28,0.16,1a18.35,18.35,0,0,0,1.59,2.06,1.8,1.8,0,0,0,1.14.67,2.56,2.56,0,0,0,1-.62l0.1-.82L34.81,89l1.36,4.55a6.58,6.58,0,0,1-3.76.06A17.43,17.43,0,0,1,27.9,91a10.36,10.36,0,0,1-1.18-1c-0.59-.64-2.77-4.5-2.77-4.5s-0.05-.7.85-0.48a23.47,23.47,0,0,1,3.67,2h0Z" transform="translate(0 0)"/><path id="path136" class="cls-2" d="M26.77,91.53s-1.17-.11-1.6-0.11,2,2,2.71,2.9a9.65,9.65,0,0,0,3.14,2c1.06,0.48,1.81,1.18,2.93,1a10.64,10.64,0,0,0,3-1.71l-0.82-2.11a6.43,6.43,0,0,1-3,.24,29.72,29.72,0,0,1-4.14-1.93Z" transform="translate(0 0)"/><path id="path138" class="cls-2" d="M43.65,104.45c0.24-.33-1-2.57-0.73-5.16s2.92-6,2.92-6l0.76-1.4a10.16,10.16,0,0,0,.76,2c0.42,0.7.14,3,.21,4.06S46,103,46,103a4.41,4.41,0,0,0-.63,2,12.63,12.63,0,0,0,0,1.77Z" transform="translate(0 0)"/><path id="path140" class="cls-3" d="M38.64,99.25s-0.05.11-.12,0.28c-0.21.51-.58,1.59-0.11,2.07l0.21,0.19a19.18,19.18,0,0,0,2.29,1.47l-1.59-2.72,1.59,2.72,2.47,3.48s-2.74-2.41-4.4-2.9-0.56-2.24-.56-2.24" transform="translate(0 0)"/><path id="path142" class="cls-2" d="M28.53,102.3H28.7c0.73,0,3.73,0,5.19.07A22.22,22.22,0,0,1,39,103.84L42,105.66l1.78,1.64L47.2,111a13.37,13.37,0,0,0-3.93-.37,14.27,14.27,0,0,1-5.21.07,30.72,30.72,0,0,1-6.32-2.87c-0.28-.35.28-1,1.46-1s6.6-.07,7.64.07a10,10,0,0,1,2.85,1.33s-4.1-2.1-4.72-2.45a5.41,5.41,0,0,0-2.85-1.12c-1.32,0,1.5.34,1.5,0.34s1.11,1.45.25,1.63a6.18,6.18,0,0,1-3.56-.43,31.33,31.33,0,0,1-3.68-2.66A16.48,16.48,0,0,0,28.53,102.3Z" transform="translate(0 0)"/><path id="path144" class="cls-3" d="M38,97.94s-2.1.36-2.38,1.13-0.9,2.31-.07,2.73,2.5,1.11,2.5,1.11l0.13-2.11,0.18-.85Z" transform="translate(0 0)"/><path id="path146" class="cls-2" d="M33,98.17s-1,2.52-.14,2.8l2.71,0.84a2.65,2.65,0,0,1-.23-1.86c0.3-.87,1.27-1.4.3-2.13a1.91,1.91,0,0,0-1.67-.49Z" transform="translate(0 0)"/><path id="path148" class="cls-2" d="M40.63,94.36s-1.11,1-.84,1.7,0.83,0.84.9,1.26A2.33,2.33,0,0,0,42,98.59c0.35,0,1.41-1.41,2-2.47s-1-1.8-1-1.8Z" transform="translate(0 0)"/><path id="path150" class="cls-2" d="M48,109c-0.58.1,1.25,0.14,1.25-.77s-1.81-.49-2.22-0.91,0.42-3.08,1.81-5.18A9.56,9.56,0,0,0,50.56,96a19.23,19.23,0,0,1-.28-3L47.6,95.84a13.33,13.33,0,0,1-.14,2.93c-0.25.92-1.55,4.4-1.69,4.79a7.2,7.2,0,0,0-.37,2.29c0,0.88,2.6,3.18,2.6,3.18h0Z" transform="translate(0 0)"/><path id="path152" class="cls-2" d="M51.53,101.32a15.58,15.58,0,0,1-.14,3.36,11.1,11.1,0,0,0,.9,6.16,9.65,9.65,0,0,0,1.95,2.66l1.53,0.07a12.39,12.39,0,0,0,1.43-2.77c0.16-.87-1.37-4.65-1.37-4.65s-2-1.19-2.43-2.17a14.91,14.91,0,0,0-1.88-2.66h0Z" transform="translate(0 0)"/><path id="path154" class="cls-3" d="M54.59,111.4l-1.74-4.76" transform="translate(0 0)"/><path id="path156" class="cls-2" d="M53.28,116.22a5.85,5.85,0,0,1-3.49-.13,15.34,15.34,0,0,0-4.79-.91c-2.43-.14-3.4.63-4.38,0.84s-2.36.63-2.36,0.63,3.2,0.42,3.68.91a6.09,6.09,0,0,0,3.61,1.19c1.88,0.14,4.52.49,6-.35s2.74-1.45,2.74-1.45Z" transform="translate(0 0)"/><path id="path158" class="cls-2" d="M42.92,120.93a16.4,16.4,0,0,1,2.64-2.17s0.56,0.51,3,.19a10.46,10.46,0,0,0,4.31-1.29l1.38-.7,1.25,0.88s-1.84-.19-2.53.65-2.08,2.38-3.33,2.45-5.14.14-5.14,0.14Z" transform="translate(0 0)"/><path id="path160" class="cls-2" d="M50.44,112.23L50.18,112c-0.49-.39-1.43-1.3-0.53-1.83a2.79,2.79,0,0,1,2.24-.32s0.89,1.58.54,2.07a3.7,3.7,0,0,1-1.2.89Z" transform="translate(0 0)"/><path id="path162" class="cls-3" d="M47.43,114.69s-0.21-1.68.42-1.68a10.63,10.63,0,0,1,2.41.8l1.08,0.9s0.26,0.54-.64,1S47.43,114.69,47.43,114.69Z" transform="translate(0 0)"/><path id="path164" class="cls-2" d="M58.76,112.24s-1.81,2.17-1.18,2.94,0.49,0,2.29.77,2.57,0.07,2.43-.63a12.75,12.75,0,0,0-1.88-2.73Z" transform="translate(0 0)"/><path id="path166" class="cls-2" d="M53.34,122.12a1.9,1.9,0,0,1-.76-2.17,1.42,1.42,0,0,1,1.81-1.05s-0.14.28,1,1.12,2.29,0.42,2.29,1a2.87,2.87,0,0,1-.63,1.33l-2.15.35Z" transform="translate(0 0)"/><path id="path168" class="cls-2" d="M49.73,125.76s3.47-3.43,5.14-3.08,3.75-.28,5.49-0.28a27.22,27.22,0,0,0,3.09-.17c3.19,1.11.43,0.63-1.64,1.57-1.53.7-5.42,2.73-5.42,2.73l-2.22,1.82a35.45,35.45,0,0,0,4.24.42c1-.07,5-0.7,5.84-1.75A39.89,39.89,0,0,1,68,123.58l-2.76-.75" transform="translate(0 0)"/><path id="path170" class="cls-2" d="M60.7,130.73s3.47-.7,4.24-1.33a9.37,9.37,0,0,0,1.6-2.73l2.29-.77s2.36-.07,3.33-0.07a11.08,11.08,0,0,0,3.24-1.25l1.38,0,4,0.39-1.18,1.4a31.83,31.83,0,0,0-3.75,0,16.44,16.44,0,0,0-3.4,1.26l-1.18-1.26-3.58-.1a13.22,13.22,0,0,0,2,2.21,18.38,18.38,0,0,1,1.6,1.4s0.21,0.28-1.11.42a5.7,5.7,0,0,0-2.64,1.33s-1.88,0-3.13-.07a21.34,21.34,0,0,1-3.68-.84h0Z" transform="translate(0 0)"/><path id="path172" class="cls-2" d="M70.15,130.31l0.69,2.24a1,1,0,0,1-1.18.7c-0.9-.28-1.43-2.16-1.43-2.16Z" transform="translate(0 0)"/><path id="path174" class="cls-2" d="M71.26,129.89a14.81,14.81,0,0,0,2.43,1.54c0.35,0,3.27-.91,3.27-0.91a7.37,7.37,0,0,1-3.13-1.61c-1.39-1.26-2.57-2.52-2.57-2.52l-3.58-.1Z" transform="translate(0 0)"/><path id="path176" class="cls-2" d="M59.54,111.71s3.39,4.38,4,5,3.33,2.73,3.33,2.73l1.52,1.65,1.47-.36a5.39,5.39,0,0,1-1.53-3c-0.07-1.61-2.15-4.37-2.15-4.37s-1.7-1.86-2.47-2.59a14.38,14.38,0,0,0-3.33-1.67l-0.38,0Z" transform="translate(0 0)"/><path id="path178" class="cls-3" d="M66.19,112.39v-2.46s1.73,1.76,2.68,2.65a21.9,21.9,0,0,1,2,2.19l0.08,2.52,0.63,2.45-0.11,1.56-1.56-.54a2.89,2.89,0,0,1-1.35-2.13,18.61,18.61,0,0,0-1.19-3.54l-1.15-1.75v-0.95Z" transform="translate(0 0)"/><path id="path180" class="cls-3" d="M82,124.78s0-3.65-.33-3.86a30.11,30.11,0,0,0-4.24-.14l-0.58,3.37,0,0.44,2,0.19,0.71-2L80,124.91Z" transform="translate(0 0)"/><path id="path182" class="cls-3" d="M75.85,129.26a1.33,1.33,0,0,0,1.6-1,12.15,12.15,0,0,0,.78-1.94l1.38,0.05s0.21,1.89-.21,2.45a4.89,4.89,0,0,1-1.95,1l-0.49.7-1.66-.61Z" transform="translate(0 0)"/><path id="path184" class="cls-2" d="M80.78,128.91s-0.9-.56.21-1.19,2.43,0.7,2.43.7l1.39,1.05s0.49,0.14,1.88-1,1.88-2.24,2.85-2.24a7.82,7.82,0,0,1,2.5.21c0.35,0.21,1.39.63,1.39,0.63a4.14,4.14,0,0,0-2.57.84,21.09,21.09,0,0,1-4.24,2.94c-0.7.28-2.36,0.7-2.92,0.42S81.48,130,81.48,130Z" transform="translate(0 0)"/><path id="path186" class="cls-2" d="M89,133a2.14,2.14,0,0,1,.49-1.61c0.63-.7,1-1.26,1-1.26l1.39,0.84a8,8,0,0,1-1,1.82,2.59,2.59,0,0,1-1.18.56Z" transform="translate(0 0)"/><path id="path188" class="cls-4" d="M82.31,121.63s4.73-.49,6-0.84S92.8,117,92.8,116s0.23-3.27.23-3.27-0.35-2.15.47-2.12a3.9,3.9,0,0,1,2.21.94,17,17,0,0,1,.08,4.3,9,9,0,0,1-2.08,2.87c-0.76.77-2.43,2.1-3.27,2.17l-8.13.77h0Z" transform="translate(0 0)"/><path id="path190" class="cls-2" d="M82,124.78s8.15-1.06,9.82-.92a25.36,25.36,0,0,1,5.21.7,18.52,18.52,0,0,1,6.53,2.8c1.32,1.05,1.46.28,1.46,0.28a6.3,6.3,0,0,0-1.81-2.52c-1-.63-1.67-1.26-1-1.4s3.75,0,5,.91a7.14,7.14,0,0,0,2,1.12s0.42-1.4-1.46-2.52a23.38,23.38,0,0,0-5.56-1.89,12.81,12.81,0,0,0,4.72-1.19,21.23,21.23,0,0,1,6-1.68c0.83-.14,1.81-0.56,2.71.07s0.21,1.26,1,1.61a2.14,2.14,0,0,0,1.81-.49s-0.7-2.38-1.53-2.8a6.36,6.36,0,0,0-2.5-.77c-0.69,0-4.59.56-4.59,0.56l-5.21,2.1-6.6,2.8s11.12-4.62,12.78-5.88,5-3.71,6.81-3.92a16.46,16.46,0,0,1,4.38-.28c1.32,0.21,2.36.28,2.36,0.28a0.91,0.91,0,0,0,.07-0.84,1.91,1.91,0,0,0-1-1.12A13.65,13.65,0,0,0,120,109a17.24,17.24,0,0,0-5.35,1.4c-0.76.56-6.32,4.2-6.32,4.2s10.07-6.51,11-7.21a6.94,6.94,0,0,1,3.61-1.19c1.11,0,2.57-.07,3.06-0.07a2.75,2.75,0,0,1,1.6.84c0.28,0.35,1.25-.14,1.11-0.56a4.35,4.35,0,0,0-1-2,4.82,4.82,0,0,0-3-.56c-1.32.21-4.1,0.84-4.1,0.84l-3.13,2s6.46-5.25,7.5-6a11,11,0,0,1,4.31-2c1.18-.07,3.82.14,3.82,0.14a3,3,0,0,0-1.6-1.68,4.64,4.64,0,0,0-3.75,0c-1.39.77-3.75,2-3.75,2l-5.7,4.76s6.53-7.56,8.2-8.82a18.47,18.47,0,0,1,5.56-2.38,18.19,18.19,0,0,1,2.29-.42l-2-1.61a5.3,5.3,0,0,0-2.36.07A42.93,42.93,0,0,0,124.14,95c-1,.91,4.93-5.18,6-6.37A10.08,10.08,0,0,1,134.08,86c0.83-.14,1.53-0.28,1.53-0.28l-1.18-1a13.52,13.52,0,0,0-2.29.77,49,49,0,0,0-4.45,3.92,57,57,0,0,1,4.1-5.88c1-1,4.1-3.43,4.1-3.43l-1.25-.77a9.35,9.35,0,0,0-2.71,1.12,34.27,34.27,0,0,0-4.17,5.39c-0.63,1.19-3.2,5.18-3.2,5.18s4.73-9.87,5.63-11.7,0.42-3.64,1.74-4.69,1.88-2.45,2.64-2.66,0.21-.84.21-0.84a2.13,2.13,0,0,0-2,.49c-0.7.84-2.71,2.17-3.2,3.08s-2.71,7.35-2.71,7.35,1-7,1.74-8.47,1-3.85,2.36-5.67a10.77,10.77,0,0,1,2.85-2.73s-0.83-1.4-1.88-1.19a7,7,0,0,0-3.47,2.45c-0.9,1.19-2.85,9.94-2.78,9.59s1.18-8.61,1.53-11.27a10.41,10.41,0,0,1,2.08-5.46,6.5,6.5,0,0,1,2.5-1.4,2.73,2.73,0,0,0-1.67-.77c-0.9,0-1.95-.21-2.64.56s-1.81,1.75-2.43,5.46,0.42,10.71.42,10.71-0.76-8.54-2.36-10.15-2.92-3.22-4-3.71a4.46,4.46,0,0,0-2.85-.42,4,4,0,0,0-1.67,1.05A0.85,0.85,0,0,0,114.9,62c0.49,0.21,1.74.28,2.43,0.49s2.29,0.14,4.45,4.76,1.95,7.63,1.95,7.63-0.69-4.13-2.08-5.18a7.64,7.64,0,0,0-4.38-1.47,2.9,2.9,0,0,0-1.39.84,1.6,1.6,0,0,0,.07,1.12c0.28,0.35,1.95-.14,2.57.28s3.4,2.17,3.82,4.2,1.6,3.64,1.53,6.16-0.56,7.07-.56,7.07,0.21-5.67-.49-8.05A9.07,9.07,0,0,0,119.14,75a4.72,4.72,0,0,0-2.57.07s-1.11,1.19-.83,1.68,2.57,0.21,3.4,1.68,2.57,2,2.5,6.72-0.14,6.72-.14,6.72-0.35-5-1.25-5.88a12.39,12.39,0,0,0-3-1.82l-1.46.63s-0.56,1.19.14,1.26a3.56,3.56,0,0,1,3.13,3.29,37,37,0,0,1-.56,8.47c-0.56,2-2.5,6.51-2.5,6.51s3.27-6.65,2.29-9.8S116.08,91,115.52,91a15.28,15.28,0,0,0-2.22.14l-0.9,1.05s0.28,1.12,1,.7,1.95-.42,2.43,1.54a16.75,16.75,0,0,1,0,6.44,40.74,40.74,0,0,1-2.64,6.51s1.6-3.92,1.18-5a14.25,14.25,0,0,0-1.6-3.15,5.23,5.23,0,0,0-1.53-.7l-1.06.26,0.25,1.56a1.49,1.49,0,0,1,1,1.33c0.14,1.12,1.11,3.36-.42,5.88s-6.11,7-6.11,7,3.54-3.15,3.89-5.25a27,27,0,0,0,.13-4.65c0.05-.53-1.19-0.72-1.72-0.54a10,10,0,0,0-2.07,1c-0.19.21-.68,0.31-0.11,1.34s1.33,0.91,1.33,1.68a7.32,7.32,0,0,1-1.74,3.64,34.42,34.42,0,0,0-2.43,3.15c0.21-.35,2.94-2.91,3.56-4.85s-1.7-2.83-1.7-2.83l-1.57-.08-1.07,1.73s1.41-.05,1.41.51a27.67,27.67,0,0,1-.28,4c-0.25,1.41-2.92,3.15-2.92,3.15l-2.15,1.82s2.36-2.8,2.43-4.13,0.26-4.55.26-4.55l-1.65-.73-0.66.56-0.31,1.66-0.8.38a3.87,3.87,0,0,1,.45,3c-0.42,1.89-2.68,5.19-4.24,5.6s1.25-1.72,1.95-2.74a5.84,5.84,0,0,0,1-3.69c0-1.84-.44-2.67-0.82-2.73s-1.56-.36-1.56-0.36-0.61-.26-0.54.93,0.62,3-.16,4.46A18.78,18.78,0,0,1,89.55,120a17.12,17.12,0,0,1-2.71,1.05c-0.46.17-4.53,0.56-4.53,0.56Z" transform="translate(0 0)"/><path id="path192" class="cls-2" d="M85.3,124.38l3.3,2.25L87.2,128l-4.62-2.44a3.68,3.68,0,0,0-.3,1.38c0,0.7-.76.2-1.3,0.74a1.09,1.09,0,0,1-1.34-.09l0.54-1.94,0.82-.84Z" transform="translate(0 0)"/><path id="path194" class="cls-2" d="M92.06,127.28a23,23,0,0,0,3,1.91,30.56,30.56,0,0,0,3.74,1.44,1,1,0,0,1-1,.72c-0.77-.12-1.07.42-1.84,0.48a23.17,23.17,0,0,1-3.5-.54l-1.93-1.18-1.68-.57Z" transform="translate(0 0)"/><path id="path196" class="cls-6" d="M79.58,1A78.58,78.58,0,1,1,1,79.58,78.59,78.59,0,0,1,79.58,1Z" transform="translate(0 0)"/><path id="path198" class="cls-1" d="M7.47,65.33l1.36-4.78,0.25,0.07L9,60.86a1.78,1.78,0,0,0-.1.77,0.66,0.66,0,0,0,.23.38,3.47,3.47,0,0,0,1,.37l4.51,1.3A4.73,4.73,0,0,0,16.3,64a1.63,1.63,0,0,0,.84-0.43,2.12,2.12,0,0,0,.57-1,2.43,2.43,0,0,0,0-1.38,2.15,2.15,0,0,0-.7-1.06,5.85,5.85,0,0,0-2-.86l-3.75-1.08A2.25,2.25,0,0,0,10.39,58a0.8,0.8,0,0,0-.46.22,2,2,0,0,0-.4.82L9.27,59l0.91-3.2,0.25,0.07-0.05.19a1.29,1.29,0,0,0,0,.69,0.92,0.92,0,0,0,.36.51,2.44,2.44,0,0,0,.76.31l3.5,1a9.46,9.46,0,0,1,2.28.89,2.75,2.75,0,0,1,1,1.43,4,4,0,0,1,0,2.45,4.51,4.51,0,0,1-.85,1.77,2.84,2.84,0,0,1-1.47.94A4,4,0,0,1,14,65.91l-4.51-1.3a3.25,3.25,0,0,0-1-.2,0.67,0.67,0,0,0-.4.22,1.9,1.9,0,0,0-.34.77Zm4.86-14.69L19.74,49,16,47.17a1.94,1.94,0,0,0-1.15-.29,1.37,1.37,0,0,0-.85.86l-0.24-.12,1.39-2.86,0.24,0.12a2.43,2.43,0,0,0-.18.83,0.81,0.81,0,0,0,.22.47,2.76,2.76,0,0,0,.81.53l7.17,3.52-0.11.22-10,2.34,5.47,2.69a1.33,1.33,0,0,0,1.17.15A1.37,1.37,0,0,0,20.61,55l0.1-.21,0.23,0.12-1.49,3.07-0.23-.11a1.55,1.55,0,0,0,.19-1.14,1.52,1.52,0,0,0-.83-0.76l-6.07-3L12.18,53a1.87,1.87,0,0,0-.69.27,1.62,1.62,0,0,0-.41.55l-0.24-.12ZM26.23,44l0.22,0.13-2.58,4.32-0.22-.14L23.82,48A1.34,1.34,0,0,0,24,47.35a0.64,0.64,0,0,0-.15-0.42,2.82,2.82,0,0,0-.72-0.53l-5.4-3.27a3.08,3.08,0,0,0-.83-0.41,0.68,0.68,0,0,0-.44.1,1.27,1.27,0,0,0-.45.48l-0.16.27-0.23-.14,2.58-4.32,0.23,0.14-0.16.27a1.33,1.33,0,0,0-.22.65,0.67,0.67,0,0,0,.14.43,3,3,0,0,0,.72.53l5.4,3.27a3.06,3.06,0,0,0,.83.41,0.73,0.73,0,0,0,.44-0.11,1.25,1.25,0,0,0,.45-0.48ZM25,29.64l0.21,0.16a1.56,1.56,0,0,0-.12,1.09,8.68,8.68,0,0,0,.8,1.72l3.86,7.09-0.14.19-8.06-2a9.77,9.77,0,0,0-1.77-.34,1.12,1.12,0,0,0-.7.43l-0.21-.16,2.76-3.69,0.21,0.16-0.09.12a1.64,1.64,0,0,0-.39.78,0.35,0.35,0,0,0,.15.32,1.06,1.06,0,0,0,.27.14l1,0.26,5,1.25-2.25-4.09a11,11,0,0,0-.57-1,1.57,1.57,0,0,0-.31-0.33,0.62,0.62,0,0,0-.37-0.14,0.68,0.68,0,0,0-.39.12,2.2,2.2,0,0,0-.58.57l-0.21-.16Zm4.74-4.06,2.61,2.92,0.14-.13A1.53,1.53,0,0,0,33.1,27a3.58,3.58,0,0,0-.74-1.61l0.2-.18L35.91,29l-0.2.18a3.79,3.79,0,0,0-1.16-.76,1.53,1.53,0,0,0-.94-0.1,2.42,2.42,0,0,0-.89.57l1.8,2a3.79,3.79,0,0,0,.7.68,0.56,0.56,0,0,0,.38,0,1.14,1.14,0,0,0,.52-0.31l0.42-.38a3.12,3.12,0,0,0,.78-4.11l0.19-.18,1.72,2.57-6.15,5.58-0.17-.19,0.24-.21a1.33,1.33,0,0,0,.4-0.56,0.64,0.64,0,0,0,0-.44A2.83,2.83,0,0,0,33,32.65l-4.21-4.71a4.84,4.84,0,0,0-.56-0.57,0.67,0.67,0,0,0-.45-0.11,1.21,1.21,0,0,0-.68.35l-0.24.21-0.18-.2,6-5.4,1.9,2.12-0.2.18a3.45,3.45,0,0,0-1.42-.73,2.11,2.11,0,0,0-1.22.21,5.55,5.55,0,0,0-1.19.9Zm10.84-3.12,1.58,2.19a3,3,0,0,0,.65.74,0.71,0.71,0,0,0,.46.06,2.28,2.28,0,0,0,.8-0.43l0.15,0.21-4,2.9-0.15-.21a2.17,2.17,0,0,0,.66-0.64,0.74,0.74,0,0,0,.08-0.46,3,3,0,0,0-.5-0.85L36.7,20.91A3,3,0,0,0,36,20.17a0.69,0.69,0,0,0-.46-0.06,2.21,2.21,0,0,0-.8.43l-0.15-.21,3.6-2.63a9.75,9.75,0,0,1,2.2-1.31A2.55,2.55,0,0,1,42,16.33a2.38,2.38,0,0,1,1.3.93,2.29,2.29,0,0,1,.41,1.88A3.17,3.17,0,0,1,43,20.48l3.77,1.28a4.93,4.93,0,0,0,1,.26,1.19,1.19,0,0,0,.69-0.2L48.6,22l-2.44,1.78L41.1,22.08Zm-2.76-3.82L40.3,22l0.33-.24a4.52,4.52,0,0,0,1.08-1,1.48,1.48,0,0,0,.24-1,2.4,2.4,0,0,0-.49-1.16,1.86,1.86,0,0,0-3-.46ZM52.28,9.94l1.37,2.9L53.39,13a3.27,3.27,0,0,0-1.7-1.37,2.51,2.51,0,0,0-1.88,0,1.63,1.63,0,0,0-.89.82,1.18,1.18,0,0,0,0,1,1.08,1.08,0,0,0,.37.46,2.33,2.33,0,0,0,.87.33,14.39,14.39,0,0,0,1.74.13,6.78,6.78,0,0,1,2.71.51,2.64,2.64,0,0,1,1.21,1.31,2.76,2.76,0,0,1,0,2.28,3.38,3.38,0,0,1-1.82,1.77,3.89,3.89,0,0,1-.82.27,6.7,6.7,0,0,1-1.06.09,1.51,1.51,0,0,0-.57.1,0.68,0.68,0,0,0-.3.29,1,1,0,0,0-.13.53l-0.24.11L49.36,18.3l0.24-.11a4.14,4.14,0,0,0,2,1.65,2.78,2.78,0,0,0,2.07,0,1.8,1.8,0,0,0,1-.91,1.34,1.34,0,0,0,0-1.11,1.32,1.32,0,0,0-.43-0.53,2.09,2.09,0,0,0-.75-0.33A8.28,8.28,0,0,0,52,16.76a11.19,11.19,0,0,1-2.16-.24,3.33,3.33,0,0,1-1.21-.57,2.52,2.52,0,0,1-.78-1,2.64,2.64,0,0,1,0-2.14,3,3,0,0,1,1.61-1.61,3.61,3.61,0,0,1,.87-0.27,4.46,4.46,0,0,1,.87,0,2,2,0,0,0,.7-0.06,0.38,0.38,0,0,0,.22-0.22,1.27,1.27,0,0,0,0-.58ZM62,17.22l0.06,0.26-4.88,1.13-0.06-.26,0.31-.07A1.32,1.32,0,0,0,58.1,18a0.64,0.64,0,0,0,.2-0.4,2.86,2.86,0,0,0-.12-0.89l-1.42-6.18a3.11,3.11,0,0,0-.28-0.88,0.68,0.68,0,0,0-.38-0.24,1.26,1.26,0,0,0-.65,0l-0.31.07-0.06-.26L60,8.08,60,8.34l-0.31.07a1.31,1.31,0,0,0-.62.3,0.68,0.68,0,0,0-.21.4A3,3,0,0,0,59,10l1.42,6.18a3.11,3.11,0,0,0,.28.88,0.74,0.74,0,0,0,.38.24,1.24,1.24,0,0,0,.65,0Zm1.44-.32,0-.26,0.31,0a1.24,1.24,0,0,0,.61-0.22,0.78,0.78,0,0,0,.27-0.4,3.34,3.34,0,0,0-.06-0.9L63.72,8.8a3.12,3.12,0,0,0-.21-0.9,0.69,0.69,0,0,0-.36-0.28,1.26,1.26,0,0,0-.65,0l-0.32,0,0-.26,4.24-.6a6.8,6.8,0,0,1,2.8.08,4.08,4.08,0,0,1,2.16,1.45,5.25,5.25,0,0,1,1,2.52,5.24,5.24,0,0,1-.06,1.9,4.32,4.32,0,0,1-.63,1.52,4.13,4.13,0,0,1-1.06,1.06,6.48,6.48,0,0,1-1.56.75,7.82,7.82,0,0,1-1.33.27Zm2.36-9.52,1,7.45a2.75,2.75,0,0,0,.16.72,0.4,0.4,0,0,0,.22.18,1.13,1.13,0,0,0,.56,0,2.13,2.13,0,0,0,1.67-1.05,5.55,5.55,0,0,0,.37-3.48,6.43,6.43,0,0,0-1-2.86,2.47,2.47,0,0,0-1.33-1,4.52,4.52,0,0,0-1.7,0h0Zm13.53,5.45L76,12.77l-0.42.93a2.07,2.07,0,0,0-.21.77,0.64,0.64,0,0,0,.31.6,2.67,2.67,0,0,0,.93.19v0.26l-3.18-.06V15.21a1.42,1.42,0,0,0,.85-0.42,5.6,5.6,0,0,0,.84-1.44l3.56-7.63h0.14l3.31,8a4.83,4.83,0,0,0,.79,1.43,1.11,1.11,0,0,0,.68.27v0.26L79,15.57V15.31h0.19a1.43,1.43,0,0,0,.79-0.14,0.38,0.38,0,0,0,.16-0.33,0.87,0.87,0,0,0,0-.26S80,14.36,79.86,14Zm-0.23-.53L77.78,9l-1.53,3.29Zm4.37,3.49,0-.26,0.31,0.06a1.24,1.24,0,0,0,.65,0,0.78,0.78,0,0,0,.38-0.3,3.33,3.33,0,0,0,.22-0.87l1.09-6.24a3.13,3.13,0,0,0,.08-0.92A0.69,0.69,0,0,0,86,6.86a1.26,1.26,0,0,0-.61-0.25l-0.31-.06,0-.26L89.39,7A6.83,6.83,0,0,1,92,8,4.1,4.1,0,0,1,93.64,10a5.26,5.26,0,0,1,.2,2.71,5.21,5.21,0,0,1-.64,1.79,4.3,4.3,0,0,1-1.07,1.25,4.09,4.09,0,0,1-1.33.68,6.45,6.45,0,0,1-1.71.23,7.84,7.84,0,0,1-1.35-.15Zm5.16-8.32-1.3,7.41a2.74,2.74,0,0,0-.07.73,0.41,0.41,0,0,0,.15.24,1.13,1.13,0,0,0,.53.2,2.13,2.13,0,0,0,1.91-.48,5.54,5.54,0,0,0,1.42-3.2,6.45,6.45,0,0,0-.06-3A2.49,2.49,0,0,0,90.3,8,4.52,4.52,0,0,0,88.67,7.48Zm20.74,5-1.08,3.16-0.26-.09a3.58,3.58,0,0,0-.45-2.28A3,3,0,0,0,106,12a2.81,2.81,0,0,0-1.72,0,3,3,0,0,0-1.47.93A6.15,6.15,0,0,0,101.64,15a8,8,0,0,0-.45,2.33,3.14,3.14,0,0,0,.44,1.85,2.82,2.82,0,0,0,1.52,1.1,3.46,3.46,0,0,0,1.69.17,5.68,5.68,0,0,0,1.94-.78l-0.27.79a5.21,5.21,0,0,1-2,.61,5,5,0,0,1-2.05-.31,5.85,5.85,0,0,1-2.37-1.48A4.39,4.39,0,0,1,98.95,17a5,5,0,0,1,.19-2.55,5.1,5.1,0,0,1,1.52-2.24,5,5,0,0,1,2.45-1.18,5.2,5.2,0,0,1,2.67.2,5.87,5.87,0,0,1,1.88,1.11,3.35,3.35,0,0,0,.7.51,0.53,0.53,0,0,0,.42,0,0.91,0.91,0,0,0,.38-0.43ZM115,16.45L113.23,20,113.4,20a1.51,1.51,0,0,0,1.44.09,3.56,3.56,0,0,0,1.23-1.27L116.31,19,114,23.47l-0.24-.12a3.84,3.84,0,0,0,.29-1.37,1.57,1.57,0,0,0-.25-0.92,2.44,2.44,0,0,0-.85-0.64l-1.22,2.42a3.82,3.82,0,0,0-.38.9,0.57,0.57,0,0,0,.09.37,1.15,1.15,0,0,0,.48.37l0.51,0.26a3.08,3.08,0,0,0,4.09-.74l0.23,0.12L115,26.66l-7.38-3.78,0.12-.23,0.28,0.15a1.31,1.31,0,0,0,.67.17,0.63,0.63,0,0,0,.41-0.18A2.86,2.86,0,0,0,109.6,22l2.86-5.65a4.92,4.92,0,0,0,.33-0.73,0.69,0.69,0,0,0-.06-0.46,1.22,1.22,0,0,0-.57-0.51l-0.28-.15,0.12-.24L119.14,18l-1.29,2.54-0.24-.12a3.49,3.49,0,0,0,.16-1.6,2.14,2.14,0,0,0-.63-1.07,5.56,5.56,0,0,0-1.26-.79Zm9.71,5.43L125,29.52l2.42-3.35a2,2,0,0,0,.49-1.09,1.38,1.38,0,0,0-.69-1l0.15-.21L130,25.73l-0.15.21a2.4,2.4,0,0,0-.78-0.32,0.8,0.8,0,0,0-.5.14,2.76,2.76,0,0,0-.66.71L123.2,33l-0.2-.14L122.46,22.5l-3.58,5a1.35,1.35,0,0,0-.35,1.13,1.38,1.38,0,0,0,.53.75l0.18,0.13-0.15.21-2.75-2,0.15-.21a1.18,1.18,0,0,0,2-.31l4-5.5,0-.33a1.93,1.93,0,0,0-.14-0.73,1.64,1.64,0,0,0-.46-0.5l0.15-.21Zm12.81,11.75-1.83,1.85-0.18-.18a4.15,4.15,0,0,0,.56-1.27,1.93,1.93,0,0,0-.09-1,2.4,2.4,0,0,0-.57-0.76l-0.5-.51L129.68,37a3.09,3.09,0,0,0-.59.71,0.75,0.75,0,0,0,0,.45,1.27,1.27,0,0,0,.36.56L129.67,39l-0.18.18-3.55-3.57,0.18-.19,0.22,0.23a1.32,1.32,0,0,0,.58.37,0.66,0.66,0,0,0,.44,0,2.81,2.81,0,0,0,.69-0.58l5.22-5.26-0.49-.49a2,2,0,0,0-1.28-.71,2.7,2.7,0,0,0-1.7.61l-0.19-.19,1.83-1.85ZM137,41.89l-2.2,1.55a3,3,0,0,0-.75.64,0.72,0.72,0,0,0-.07.46,2.3,2.3,0,0,0,.42.81l-0.21.15-2.81-4,0.21-.15a2.17,2.17,0,0,0,.62.67,0.72,0.72,0,0,0,.45.09,3,3,0,0,0,.85-0.48L138.58,38a3,3,0,0,0,.75-0.64,0.7,0.7,0,0,0,.07-0.46,2.23,2.23,0,0,0-.42-0.81l0.22-.15,2.55,3.67A9.85,9.85,0,0,1,143,41.83a2.6,2.6,0,0,1,0,1.6,2.4,2.4,0,0,1-.95,1.29,2.25,2.25,0,0,1-1.87.38,3.13,3.13,0,0,1-1.32-.74l-1.34,3.77a5,5,0,0,0-.27,1,1.21,1.21,0,0,0,.19.69l-0.21.15-1.73-2.49,1.81-5.06Zm3.85-2.71-3.44,2.42,0.23,0.33a4.52,4.52,0,0,0,1,1.11,1.46,1.46,0,0,0,1,.26,2.37,2.37,0,0,0,1.16-.48,1.88,1.88,0,0,0,.51-3Zm1.27,15.65-1.38-3.11h-1a2,2,0,0,0-.78.13,0.64,0.64,0,0,0-.41.54,2.69,2.69,0,0,0,.22.93l-0.24.11-1.3-2.93,0.24-.11a1.43,1.43,0,0,0,.74.6,5.52,5.52,0,0,0,1.65.16l8.37,0,0.05,0.12-5.77,6.39a4.82,4.82,0,0,0-1,1.32,1.13,1.13,0,0,0,0,.73l-0.24.11-1.88-4.26,0.24-.11,0.08,0.17a1.45,1.45,0,0,0,.46.66,0.38,0.38,0,0,0,.36,0,0.83,0.83,0,0,0,.22-0.15s0.17-.16.4-0.41Zm0.38-.44,2.43-2.66H141.3ZM146.14,68l-3.36.35L141,60l0.25-.05,0.07,0.31a1.34,1.34,0,0,0,.29.63,0.64,0.64,0,0,0,.39.21,2.91,2.91,0,0,0,.89-0.11l6.16-1.32a3.19,3.19,0,0,0,.88-0.27,0.71,0.71,0,0,0,.25-0.38,1.28,1.28,0,0,0,0-.66L150.12,58l0.26-.05,1.06,5-0.26.05-0.09-.41a1.34,1.34,0,0,0-.28-0.63,0.69,0.69,0,0,0-.39-0.21,2.94,2.94,0,0,0-.89.11l-6,1.28a3.1,3.1,0,0,0-.9.28,0.57,0.57,0,0,0-.23.39,3.36,3.36,0,0,0,.12.85l0.17,0.79a2.75,2.75,0,0,0,.53,1.2,2.35,2.35,0,0,0,1,.69,6.79,6.79,0,0,0,1.82.34Z" transform="translate(0 0)"/><path id="path200" class="cls-2" d="M11.19,69.54l1.63,5.08h5.29l-4.29,3.13,1.65,5.07-4.28-3.14L6.91,82.8l1.65-5.07L4.27,74.61H9.57Z" transform="translate(0 0)"/><path id="path202" class="cls-2" d="M147.87,69.05l1.63,5.08h5.29l-4.29,3.13,1.65,5.07-4.28-3.14-4.28,3.14,1.65-5.07L141,74.12h5.29Z" transform="translate(0 0)"/><path id="path204" class="cls-7" d="M79.63,21.15a58.2,58.2,0,1,1-58.45,58.2,58.33,58.33,0,0,1,58.45-58.2h0Z" transform="translate(0 0)"/><path id="path206" class="cls-2" d="M39.33,44l0.22,3.39,3.32,1-3.21,1.2L39.76,53l-2.2-2.64L34.3,51.47l1.85-2.83L34,45.92l3.35,0.89Z" transform="translate(0 0)"/><path id="path208" class="cls-2" d="M51.85,33.39L51.14,36.7l2.92,1.87-3.42.27-0.82,3.29L48.42,39,45,39.14l2.55-2.22-1.3-3.19,3,1.78Z" transform="translate(0 0)"/><path id="path210" class="cls-2" d="M67.48,27.43l-1.92,2.79,2,2.86L64.28,32l-2,2.72-0.09-3.45L59,30.09,62.16,29l0-3.45,2.07,2.8Z" transform="translate(0 0)"/><path id="path212" class="cls-2" d="M83.56,25.83L81,28l1.2,3.27-2.88-1.86-2.63,2.12,0.77-3.36-2.82-2L78,26l0.88-3.33,1.3,3.23Z" transform="translate(0 0)"/><path id="path214" class="cls-2" d="M101.07,30.83l-3.28.8-0.41,3.46-1.72-3-3.3.69,2.21-2.64-1.63-3L96,28.47l2.29-2.56L98,29.38Z" transform="translate(0 0)"/><path id="path216" class="cls-2" d="M114.45,39.8l-3.36-.25-1.44,3.17-0.74-3.37L105.57,39l2.9-1.83-0.63-3.39L110.37,36l3-1.74L112,37.49Z" transform="translate(0 0)"/><path id="path218" class="cls-2" d="M124.65,52.06l-3.12-1.28-2.34,2.57,0.33-3.43-3.07-1.38,3.33-.84,0.44-3.42,1.72,2.91,3.35-.73L123,49.09Z" transform="translate(0 0)"/></svg>